<mxfile host="app.diagrams.net" agent="Mozilla/5.0 (Windows NT 10.0; Win64; x64; rv:134.0) Gecko/20100101 Firefox/134.0" version="26.0.7">
  <diagram name="Page-1" id="KcecyR7wo6NuOh3KsDf_">
    <mxGraphModel dx="1057" dy="657" grid="1" gridSize="10" guides="1" tooltips="1" connect="1" arrows="1" fold="1" page="1" pageScale="1" pageWidth="850" pageHeight="1100" math="0" shadow="0">
      <root>
        <mxCell id="0" />
        <mxCell id="1" parent="0" />
        <mxCell id="IeZtCJ_V18jkRsquN7jY-3" style="edgeStyle=orthogonalEdgeStyle;rounded=0;orthogonalLoop=1;jettySize=auto;html=1;entryX=0.5;entryY=0;entryDx=0;entryDy=0;fontFamily=Helvetica;" edge="1" parent="1" source="IeZtCJ_V18jkRsquN7jY-1" target="IeZtCJ_V18jkRsquN7jY-2">
          <mxGeometry relative="1" as="geometry" />
        </mxCell>
        <mxCell id="IeZtCJ_V18jkRsquN7jY-1" value="Begin" style="ellipse;whiteSpace=wrap;html=1;fontFamily=Helvetica;" vertex="1" parent="1">
          <mxGeometry x="50" y="120" width="80" height="40" as="geometry" />
        </mxCell>
        <mxCell id="IeZtCJ_V18jkRsquN7jY-2" value="index path" style="shape=parallelogram;perimeter=parallelogramPerimeter;whiteSpace=wrap;html=1;fixedSize=1;fontFamily=Helvetica;" vertex="1" parent="1">
          <mxGeometry x="35" y="210" width="110" height="60" as="geometry" />
        </mxCell>
        <mxCell id="IeZtCJ_V18jkRsquN7jY-10" style="edgeStyle=orthogonalEdgeStyle;rounded=0;orthogonalLoop=1;jettySize=auto;html=1;entryX=0;entryY=0.5;entryDx=0;entryDy=0;fontFamily=Helvetica;" edge="1" parent="1" source="IeZtCJ_V18jkRsquN7jY-4" target="IeZtCJ_V18jkRsquN7jY-6">
          <mxGeometry relative="1" as="geometry" />
        </mxCell>
        <mxCell id="IeZtCJ_V18jkRsquN7jY-4" value="Validate the token in the local storage" style="rounded=0;whiteSpace=wrap;html=1;" vertex="1" parent="1">
          <mxGeometry x="21" y="350" width="120" height="60" as="geometry" />
        </mxCell>
        <mxCell id="IeZtCJ_V18jkRsquN7jY-5" style="edgeStyle=orthogonalEdgeStyle;rounded=0;orthogonalLoop=1;jettySize=auto;html=1;entryX=0.575;entryY=-0.05;entryDx=0;entryDy=0;entryPerimeter=0;fontFamily=Helvetica;" edge="1" parent="1" source="IeZtCJ_V18jkRsquN7jY-2" target="IeZtCJ_V18jkRsquN7jY-4">
          <mxGeometry relative="1" as="geometry" />
        </mxCell>
        <mxCell id="IeZtCJ_V18jkRsquN7jY-11" value="No" style="edgeStyle=orthogonalEdgeStyle;rounded=0;orthogonalLoop=1;jettySize=auto;html=1;fillColor=#f8cecc;strokeColor=#b85450;fontFamily=Helvetica;" edge="1" parent="1" source="IeZtCJ_V18jkRsquN7jY-6" target="IeZtCJ_V18jkRsquN7jY-8">
          <mxGeometry relative="1" as="geometry" />
        </mxCell>
        <mxCell id="IeZtCJ_V18jkRsquN7jY-27" style="edgeStyle=orthogonalEdgeStyle;rounded=0;orthogonalLoop=1;jettySize=auto;html=1;" edge="1" parent="1" source="IeZtCJ_V18jkRsquN7jY-6" target="IeZtCJ_V18jkRsquN7jY-25">
          <mxGeometry relative="1" as="geometry" />
        </mxCell>
        <mxCell id="IeZtCJ_V18jkRsquN7jY-6" value="The token is valid?" style="rhombus;whiteSpace=wrap;html=1;fontFamily=Helvetica;" vertex="1" parent="1">
          <mxGeometry x="220" y="335" width="130" height="90" as="geometry" />
        </mxCell>
        <mxCell id="IeZtCJ_V18jkRsquN7jY-13" style="edgeStyle=orthogonalEdgeStyle;rounded=0;orthogonalLoop=1;jettySize=auto;html=1;entryX=0;entryY=0.5;entryDx=0;entryDy=0;fontFamily=Helvetica;" edge="1" parent="1" source="IeZtCJ_V18jkRsquN7jY-8" target="IeZtCJ_V18jkRsquN7jY-12">
          <mxGeometry relative="1" as="geometry" />
        </mxCell>
        <mxCell id="IeZtCJ_V18jkRsquN7jY-8" value="/auth/callback" style="shape=parallelogram;perimeter=parallelogramPerimeter;whiteSpace=wrap;html=1;fixedSize=1;fontFamily=Helvetica;" vertex="1" parent="1">
          <mxGeometry x="420" y="350" width="120" height="60" as="geometry" />
        </mxCell>
        <mxCell id="IeZtCJ_V18jkRsquN7jY-15" style="edgeStyle=orthogonalEdgeStyle;rounded=0;orthogonalLoop=1;jettySize=auto;html=1;entryX=0.5;entryY=1;entryDx=0;entryDy=0;fontFamily=Helvetica;" edge="1" parent="1" source="IeZtCJ_V18jkRsquN7jY-12" target="IeZtCJ_V18jkRsquN7jY-14">
          <mxGeometry relative="1" as="geometry" />
        </mxCell>
        <mxCell id="IeZtCJ_V18jkRsquN7jY-12" value="validate the MSAL token" style="rounded=0;whiteSpace=wrap;html=1;fontFamily=Helvetica;" vertex="1" parent="1">
          <mxGeometry x="600" y="350" width="120" height="60" as="geometry" />
        </mxCell>
        <mxCell id="IeZtCJ_V18jkRsquN7jY-17" value="No" style="edgeStyle=orthogonalEdgeStyle;rounded=0;orthogonalLoop=1;jettySize=auto;html=1;entryX=1;entryY=0.5;entryDx=0;entryDy=0;fillColor=#f8cecc;strokeColor=#b85450;fontFamily=Helvetica;" edge="1" parent="1" source="IeZtCJ_V18jkRsquN7jY-14" target="IeZtCJ_V18jkRsquN7jY-16">
          <mxGeometry relative="1" as="geometry" />
        </mxCell>
        <mxCell id="IeZtCJ_V18jkRsquN7jY-20" value="Yes" style="edgeStyle=orthogonalEdgeStyle;rounded=0;orthogonalLoop=1;jettySize=auto;html=1;entryX=1;entryY=0.5;entryDx=0;entryDy=0;fillColor=#d5e8d4;strokeColor=#82b366;fontFamily=Helvetica;" edge="1" parent="1" source="IeZtCJ_V18jkRsquN7jY-14" target="IeZtCJ_V18jkRsquN7jY-19">
          <mxGeometry relative="1" as="geometry">
            <Array as="points">
              <mxPoint x="660" y="150" />
            </Array>
          </mxGeometry>
        </mxCell>
        <mxCell id="IeZtCJ_V18jkRsquN7jY-14" value="The token is valid?" style="rhombus;whiteSpace=wrap;html=1;fontFamily=Helvetica;" vertex="1" parent="1">
          <mxGeometry x="595" y="210" width="130" height="90" as="geometry" />
        </mxCell>
        <mxCell id="IeZtCJ_V18jkRsquN7jY-18" style="edgeStyle=orthogonalEdgeStyle;rounded=0;orthogonalLoop=1;jettySize=auto;html=1;entryX=0.5;entryY=0;entryDx=0;entryDy=0;fontFamily=Helvetica;" edge="1" parent="1" source="IeZtCJ_V18jkRsquN7jY-16" target="IeZtCJ_V18jkRsquN7jY-8">
          <mxGeometry relative="1" as="geometry" />
        </mxCell>
        <mxCell id="IeZtCJ_V18jkRsquN7jY-16" value="b2c login page" style="shape=parallelogram;perimeter=parallelogramPerimeter;whiteSpace=wrap;html=1;fixedSize=1;fontFamily=Helvetica;" vertex="1" parent="1">
          <mxGeometry x="420" y="225" width="120" height="60" as="geometry" />
        </mxCell>
        <mxCell id="IeZtCJ_V18jkRsquN7jY-23" style="edgeStyle=orthogonalEdgeStyle;rounded=0;orthogonalLoop=1;jettySize=auto;html=1;entryX=1;entryY=0.5;entryDx=0;entryDy=0;" edge="1" parent="1" source="IeZtCJ_V18jkRsquN7jY-19" target="IeZtCJ_V18jkRsquN7jY-22">
          <mxGeometry relative="1" as="geometry" />
        </mxCell>
        <mxCell id="IeZtCJ_V18jkRsquN7jY-19" value="Exchange the MSAL token to OIDC token" style="rounded=0;whiteSpace=wrap;html=1;fontFamily=Helvetica;" vertex="1" parent="1">
          <mxGeometry x="425" y="120" width="120" height="60" as="geometry" />
        </mxCell>
        <mxCell id="IeZtCJ_V18jkRsquN7jY-24" style="edgeStyle=orthogonalEdgeStyle;rounded=0;orthogonalLoop=1;jettySize=auto;html=1;entryX=1;entryY=0.5;entryDx=0;entryDy=0;" edge="1" parent="1" source="IeZtCJ_V18jkRsquN7jY-22" target="IeZtCJ_V18jkRsquN7jY-2">
          <mxGeometry relative="1" as="geometry">
            <Array as="points">
              <mxPoint x="180" y="150" />
              <mxPoint x="180" y="240" />
            </Array>
          </mxGeometry>
        </mxCell>
        <mxCell id="IeZtCJ_V18jkRsquN7jY-22" value="Store the token and attach it into axios header" style="rounded=0;whiteSpace=wrap;html=1;fontFamily=Helvetica;" vertex="1" parent="1">
          <mxGeometry x="260" y="120" width="120" height="60" as="geometry" />
        </mxCell>
        <mxCell id="IeZtCJ_V18jkRsquN7jY-29" style="edgeStyle=orthogonalEdgeStyle;rounded=0;orthogonalLoop=1;jettySize=auto;html=1;" edge="1" parent="1" source="IeZtCJ_V18jkRsquN7jY-25" target="IeZtCJ_V18jkRsquN7jY-28">
          <mxGeometry relative="1" as="geometry" />
        </mxCell>
        <mxCell id="IeZtCJ_V18jkRsquN7jY-25" value="/select-cowin" style="shape=parallelogram;perimeter=parallelogramPerimeter;whiteSpace=wrap;html=1;fixedSize=1;fontFamily=Helvetica;" vertex="1" parent="1">
          <mxGeometry x="225" y="470" width="120" height="60" as="geometry" />
        </mxCell>
        <mxCell id="IeZtCJ_V18jkRsquN7jY-28" value="end" style="ellipse;whiteSpace=wrap;html=1;fontFamily=Helvetica;" vertex="1" parent="1">
          <mxGeometry x="245" y="590" width="80" height="40" as="geometry" />
        </mxCell>
      </root>
    </mxGraphModel>
  </diagram>
</mxfile>
